<?xml version="1.0" standalone="no"?>
<!DOCTYPE svg PUBLIC "-//W3C//DTD SVG 20010904//EN"
 "http://www.w3.org/TR/2001/REC-SVG-20010904/DTD/svg10.dtd">
<svg version="1.0" xmlns="http://www.w3.org/2000/svg"
 width="1200.000000pt" height="1200.000000pt" viewBox="0 0 1200.000000 1200.000000"
 preserveAspectRatio="xMidYMid meet">
<metadata>
Created by potrace 1.11, written by Peter Selinger 2001-2013
</metadata>
<g transform="translate(0.000000,1200.000000) scale(0.100000,-0.100000)"
fill="#000000" stroke="none">
<path d="M5675 11009 c-1099 -82 -2135 -511 -2975 -1232 -147 -127 -447 -429
-565 -572 -606 -727 -981 -1536 -1140 -2462 -56 -329 -81 -852 -56 -1194 92
-1255 609 -2390 1490 -3269 726 -724 1627 -1205 2634 -1404 337 -67 600 -91
997 -90 408 0 637 23 1015 99 1000 202 1907 698 2630 1436 187 191 285 305
439 509 836 1107 1183 2527 955 3910 -173 1052 -672 2021 -1433 2783 -877 876
-2019 1396 -3271 1487 -161 11 -558 11 -720 -1z m-1186 -3296 l735 -1323 693
0 c381 0 693 4 693 8 0 5 -325 593 -721 1308 -397 714 -724 1307 -726 1317 -5
15 5 17 120 17 l124 0 319 -574 c176 -316 321 -572 324 -570 3 3 147 260 320
572 l315 567 129 3 c106 2 127 0 123 -11 -3 -8 -175 -320 -382 -693 -361 -650
-377 -680 -363 -704 7 -14 164 -296 348 -627 183 -332 335 -601 338 -598 2 2
332 595 732 1317 l728 1313 127 3 c118 2 127 1 122 -15 -2 -10 -358 -655 -790
-1433 l-786 -1415 -963 -2 -963 -2 -790 1424 c-434 784 -792 1430 -793 1436
-3 6 41 9 125 7 l128 -3 734 -1322z m1906 -1846 c579 -131 1042 -545 1225
-1096 117 -353 117 -712 0 -1063 -238 -711 -960 -1186 -1702 -1120 -412 37
-753 195 -1038 481 -69 70 -153 166 -187 214 -127 180 -226 411 -274 637 -31
144 -34 464 -5 615 130 700 678 1236 1381 1350 144 23 459 14 600 -18z"/>
</g>
</svg>
