<svg id="SvgjsSvg1030" width="360" height="275" xmlns="http://www.w3.org/2000/svg" version="1.1" xmlns:xlink="http://www.w3.org/1999/xlink" xmlns:svgjs="http://svgjs.com/svgjs"><defs id="SvgjsDefs1031"><!--?xml version="1.0"?-->
<svg width="398.15789473684px" height="294.73684210526px" id="t1483973923052"><path fill="#ffffff" d="M16.5,39.473684210527l9.8684210526316,0c3.7894736842105,0,7.1842105263158,3.0789473684211,7.1842105263158,6.9473684210527l0,14.289473684211c0,5.3684210526316-2.6052631578947,9.2368421052632-8.0526315789474,9.2368421052632l-3.3947368421053,0l0,24.789473684211l-4.0263157894737,0c-1.3421052631579,0-1.5789473684211-0.78947368421053-1.5789473684211-1.1842105263158l0-54.078947368421z M28.105263157895,61.973684210527l0-14.526315789474c-0.15789473684211-1.5-1.421052631579-2.6842105263158-3-2.6842105263158l-3,0l0,19.894736842105l3,0c1.5789473684211,0,2.8421052631579-1.1842105263158,3-2.6842105263158z M64.815789473685,89.131578947369l12.789473684211,0c-0.63157894736842,1.421052631579-1.5789473684211,3.6315789473684-1.8157894736842,4.1052631578948c-0.39473684210526,0.71052631578948-1.2631578947368,1.5-3.0789473684211,1.5l-13.578947368421,0l0-55.263157894737l3.9473684210527,0c0.94736842105264,0.078947368421053,1.7368421052632,0.78947368421053,1.7368421052632,1.7368421052632l0,47.921052631579z M114.31578947368,94.736842105264l-7.9736842105264-52.263157894737c-0.23684210526316-1.5-0.63157894736842-3-3-3l-3.0789473684211,0l-8.3684210526316,55.263157894737l6.2368421052632,0l4.9736842105263-38.052631578948l4.9736842105263,38.052631578948l6.2368421052632,0z M155.13157894737,39.473684210527l-1.8947368421053,4.1052631578948c-0.31578947368421,0.71052631578948-1.1842105263158,1.5-3,1.5l-4.421052631579,0c-0.78947368421053,0-1.3421052631579,0.63157894736842-1.421052631579,1.3421052631579l0,48.315789473684l-4.0263157894737,0c-1.3421052631579,0-1.5789473684211-0.78947368421053-1.5789473684211-1.1842105263158l0-48.473684210527l-7.9736842105264,0l0-3.8684210526316c0-0.94736842105264,0.78947368421053-1.7368421052632,1.7368421052632-1.7368421052632l22.578947368421,0z M192.15789473684,94.736842105264l-7.9736842105264-52.263157894737c-0.23684210526316-1.5-0.63157894736842-3-3-3l-3.0789473684211,0l-8.3684210526316,55.263157894737l6.2368421052632,0l4.9736842105263-38.052631578948l4.9736842105263,38.052631578948l6.2368421052632,0z"></path></svg>
</defs><use id="SvgjsUse1032" xlink:href="#t1483973923052" fill="#ffffff" x="75.67105102539062" y="69.89474105834961"></use></svg>