<svg fill="#FFFFFF" xmlns="http://www.w3.org/2000/svg" xmlns:xlink="http://www.w3.org/1999/xlink" version="1.1" x="0px" y="0px" viewBox="0 0 100 100" enable-background="new 0 0 100 100" xml:space="preserve"><path d="M42.064,61.195c0,5.041-4.088,9.129-9.125,9.129c-5.042,0-9.129-4.088-9.129-9.129s4.088-9.125,9.129-9.125  C37.977,52.07,42.064,56.154,42.064,61.195L42.064,61.195z M44.178,61.195c0-6.206-5.033-11.239-11.238-11.239  c-6.21,0-11.239,5.033-11.239,11.239c0,6.211,5.028,11.238,11.239,11.238C39.146,72.434,44.178,67.406,44.178,61.195L44.178,61.195z  "></path><path d="M74.934,61.195c0,5.041-4.093,9.129-9.135,9.129c-5.037,0-9.124-4.088-9.124-9.129s4.087-9.125,9.124-9.125  C70.841,52.07,74.934,56.154,74.934,61.195L74.934,61.195z M77.043,61.195c0-6.206-5.033-11.239-11.244-11.239  c-6.205,0-11.233,5.033-11.233,11.239c0,6.211,5.028,11.238,11.233,11.238C72.01,72.434,77.043,67.406,77.043,61.195L77.043,61.195z  "></path><g><path d="M67.121,32.373c0-2.354-1.903-4.265-4.262-4.265c-2.354,0-4.266,1.911-4.266,4.265c0,2.354,1.911,4.265,4.266,4.265   C65.218,36.638,67.121,34.727,67.121,32.373L67.121,32.373z"></path></g><g><path d="M46.014,40.43l7.497,24.199h-6.303l-7.509-24.232c-0.169-0.544-0.253-1.109-0.253-1.679c0-3.135,2.539-5.674,5.674-5.674   h8.509c2.366,0,4.488,1.477,5.314,3.699l1.988,5.35c0.156,0.413,0.548,0.683,0.986,0.683l4.671,0.004   c1.671,0,3.012,1.354,3.012,3.012v3.012h-3.012l-5.646-0.003c-2.37,0-4.492-1.477-5.315-3.696l-1.991-5.354   c-0.152-0.409-0.543-0.684-0.986-0.684h-5.632c-0.578,0-1.051,0.468-1.051,1.05C45.967,40.224,45.98,40.329,46.014,40.43z"></path></g><path d="M88.323,50.632c0,21.06-17.068,38.133-38.129,38.133c-21.06,0-38.133-17.073-38.133-38.133  c0-21.061,17.073-38.13,38.133-38.13C71.255,12.502,88.323,29.571,88.323,50.632L88.323,50.632z M92.889,50.632  c0-23.579-19.115-42.689-42.694-42.689C26.616,7.942,7.5,27.053,7.5,50.632c0,23.578,19.116,42.693,42.694,42.693  C73.773,93.325,92.889,74.21,92.889,50.632L92.889,50.632z"></path></svg>