<svg fill="#FFFFFF" xmlns="http://www.w3.org/2000/svg" xmlns:xlink="http://www.w3.org/1999/xlink" version="1.1" x="0px" y="0px" viewBox="0 0 100 100" enable-background="new 0 0 100 100" xml:space="preserve"><path d="M88.736,50.014c0,21.061-17.068,38.129-38.125,38.129c-21.072,0-38.141-17.068-38.141-38.129S29.54,11.881,50.611,11.881  C71.668,11.881,88.736,28.953,88.736,50.014L88.736,50.014z M93.301,50.014c0-23.574-19.111-42.689-42.689-42.689  c-23.578,0-42.701,19.115-42.701,42.689c0,23.579,19.123,42.694,42.701,42.694C74.189,92.708,93.301,73.593,93.301,50.014  L93.301,50.014z"></path><path d="M40.643,64.468c0,2.817-2.287,5.108-5.104,5.108c-2.822,0-5.097-2.291-5.097-5.108c-2.818,0-5.108-2.287-5.108-5.109v-5.552  h-4.872c-1.14,0-2.067-0.924-2.067-2.067v-3.455c0-1.14,0.928-2.058,2.067-2.058h4.872v-5.562c0-2.817,2.29-5.108,5.108-5.108  c0-2.822,2.274-5.102,5.097-5.102c2.817,0,5.104,2.279,5.104,5.102v10.67h19.921v-10.67c0-2.822,2.285-5.102,5.107-5.102  s5.109,2.279,5.109,5.102c2.818,0,5.109,2.291,5.109,5.108v5.562h4.855c1.141,0,2.068,0.918,2.068,2.058v3.455  c0,1.144-0.928,2.067-2.068,2.067h-4.855v5.552c0,2.822-2.291,5.109-5.109,5.109c0,2.817-2.287,5.108-5.109,5.108  s-5.107-2.291-5.107-5.108V53.807H40.643V64.468z M60.564,52.772V47.26H40.643v5.513H60.564z M80.746,52.772  c0.578,0,1.037-0.464,1.037-1.033v-3.455c0-0.569-0.459-1.024-1.037-1.024h-4.855v5.513H80.746z M25.333,47.26h-4.872  c-0.562,0-1.034,0.455-1.034,1.024v3.455c0,0.569,0.472,1.033,1.034,1.033h4.872V47.26z"></path></svg>