<svg fill="#1CAF9A" xmlns="http://www.w3.org/2000/svg" xmlns:xlink="http://www.w3.org/1999/xlink" version="1.1" x="0px" y="0px" viewBox="0 0 100 100" enable-background="new 0 0 100 100" xml:space="preserve"><path d="M93.086,50.821c0,23.583-19.105,42.694-42.685,42.694c-23.582,0-42.697-19.111-42.697-42.694  c0-23.573,19.115-42.685,42.697-42.685C73.98,8.137,93.086,27.248,93.086,50.821L93.086,50.821z M64.223,64.65  c0-7.636-6.189-13.829-13.822-13.829c-7.636,0-13.819,6.193-13.819,13.829c0,7.633,6.184,13.821,13.819,13.821  C58.033,78.472,64.223,72.283,64.223,64.65L64.223,64.65z M51.465,36.216l6.383-11.508h-2.127l-5.32,9.598l-5.332-9.598h-2.126  l12.225,22.021H43.503L31.278,24.708H29.16l13.251,23.878h15.976l13.244-23.878h-2.127L57.295,46.729L51.465,36.216z"></path></svg>