<svg fill="#FFFFFF" xmlns="http://www.w3.org/2000/svg" xmlns:xlink="http://www.w3.org/1999/xlink" version="1.1" x="0px" y="0px" viewBox="0 0 100 100" enable-background="new 0 0 100 100" xml:space="preserve"><g><path d="M67.795,34.317c0-2.358-1.916-4.265-4.27-4.265s-4.261,1.907-4.261,4.265c0,2.354,1.907,4.265,4.261,4.265   S67.795,36.671,67.795,34.317L67.795,34.317z"></path></g><g><path d="M25.616,69.793l4.582,3.91l13.031-15.28c1.076-1.266,0.924-3.169-0.342-4.244c-1.261-1.084-3.164-0.933-4.243,0.333   L25.616,69.793z"></path></g><g><line x1="45.643" y1="71.209" x2="41.914" y2="66.48"></line></g><g><path d="M65.12,43.104l-6.885-5.759c-2.021-1.696-4.577-2.624-7.21-2.624H35.606c-1.667,0-3.013,1.35-3.013,3.012v3.012h3.013   h11.93c0.241,0,0.473,0.088,0.654,0.245c0.413,0.363,0.452,0.991,0.089,1.405l-3.949,4.527c-1.625,1.861-1.531,4.662,0.211,6.413   l5.252,5.286c0.034,0.029,0.063,0.067,0.089,0.102c0.396,0.502,0.312,1.228-0.19,1.623l-7.779,6.135l3.729,4.729l8.15-6.425   c2.932-2.312,3.435-6.56,1.122-9.492c-0.165-0.202-0.333-0.396-0.515-0.577l-3.948-3.979c-0.435-0.439-0.46-1.14-0.051-1.607   l4.527-5.193c0.422-0.485,1.156-0.54,1.654-0.126l6.311,5.282c1.51,1.266,3.654,1.455,5.367,0.468l6.859-3.944   c1.438-0.831,1.939-2.675,1.105-4.113l-1.498-2.611l-2.611,1.501l-5.008,2.881C66.471,43.64,65.678,43.568,65.12,43.104z"></path></g><path d="M88.323,50.234c0,21.06-17.068,38.133-38.129,38.133c-21.06,0-38.133-17.073-38.133-38.133  c0-21.06,17.073-38.133,38.133-38.133C71.255,12.101,88.323,29.174,88.323,50.234L88.323,50.234z M92.889,50.234  c0-23.574-19.115-42.689-42.694-42.689C26.616,7.545,7.5,26.66,7.5,50.234c0,23.583,19.116,42.698,42.694,42.698  C73.773,92.932,92.889,73.816,92.889,50.234L92.889,50.234z"></path></svg>