<svg fill="#FFFFFF" xmlns="http://www.w3.org/2000/svg" xmlns:xlink="http://www.w3.org/1999/xlink" version="1.1" x="0px" y="0px" viewBox="0 0 100 100" enable-background="new 0 0 100 100" xml:space="preserve"><g><path d="M59.51,39.818c0-2.359-1.907-4.27-4.262-4.27c-2.357,0-4.269,1.91-4.269,4.27c0,2.354,1.911,4.257,4.269,4.257   C57.603,44.075,59.51,42.172,59.51,39.818L59.51,39.818z"></path></g><g><path d="M62.378,48.854l-4.894-2.341c-1.498-0.718-3.299-0.08-4.012,1.422c-0.722,1.501-0.084,3.294,1.417,4.012l5.519,2.641   c1.607,0.768,3.48,0.738,5.059-0.08l5.577-2.886c1.477-0.769,2.058-2.587,1.29-4.063l-1.388-2.67l-2.67,1.381l-4.962,2.568   C63.02,48.994,62.674,48.994,62.378,48.854z"></path></g><g><path d="M34.45,53.002c-4.29,0.805-8.314,2.645-11.731,5.354l1.058,1.332c7.172-5.682,16.867-7.027,25.321-3.509   c3.531,1.468,7.227,2.493,11.011,3.063c5.687,0.855,11.501-0.137,16.579-2.827L75.896,54.9c-4.764,2.522-10.206,3.455-15.534,2.657   c-3.645-0.552-7.205-1.544-10.605-2.961c-1.118-0.46-2.257-0.849-3.426-1.16l2.953-1.587c2.764-1.484,3.793-4.932,2.308-7.687   c-0.501-0.929-1.253-1.704-2.168-2.228l-6.025-3.455c-1.616-0.932-3.59-1.004-5.278-0.198l-6.889,3.308l-2.716,1.3l1.303,2.716   c0.717,1.498,2.515,2.131,4.017,1.418l6.226-2.99c0.313-0.148,0.68-0.141,0.979,0.037l3.198,1.831   c0.173,0.101,0.313,0.241,0.405,0.413c0.27,0.516,0.084,1.148-0.43,1.422L34.45,53.002z"></path></g><g><path d="M76.688,62.076c-5.078,2.691-10.893,3.684-16.579,2.835c-3.784-0.569-7.479-1.603-11.011-3.071   c-8.454-3.514-18.149-2.173-25.321,3.52l-1.058-1.343c7.66-6.066,18.009-7.509,27.038-3.751c3.4,1.41,6.961,2.41,10.605,2.953   c5.328,0.798,10.771-0.131,15.534-2.657L76.688,62.076z"></path></g><path d="M88.323,50.424c0,21.064-17.068,38.142-38.129,38.142c-21.06,0-38.133-17.077-38.133-38.142  c0-21.056,17.073-38.129,38.133-38.129C71.255,12.295,88.323,29.368,88.323,50.424L88.323,50.424z M92.889,50.424  c0-23.574-19.115-42.686-42.694-42.686C26.616,7.738,7.5,26.85,7.5,50.424c0,23.584,19.116,42.694,42.694,42.694  C73.773,93.118,92.889,74.008,92.889,50.424L92.889,50.424z"></path></svg>