<?xml version="1.0" standalone="no"?>
<!DOCTYPE svg PUBLIC "-//W3C//DTD SVG 20010904//EN"
 "http://www.w3.org/TR/2001/REC-SVG-20010904/DTD/svg10.dtd">
<svg version="1.0" xmlns="http://www.w3.org/2000/svg"
 width="520.000000pt" height="520.000000pt" viewBox="0 0 520.000000 520.000000"
 preserveAspectRatio="xMidYMid meet">
<metadata>
Created by potrace 1.11, written by Peter Selinger 2001-2013
</metadata>
<g transform="translate(0.000000,520.000000) scale(0.100000,-0.100000)"
fill="#000000" stroke="none">
<path d="M0 2600 l0 -2600 2600 0 2600 0 0 2600 0 2600 -2600 0 -2600 0 0
-2600z m3149 1674 c221 -32 385 -108 516 -239 174 -174 260 -400 285 -750 23
-320 -25 -656 -122 -850 -125 -248 -326 -388 -648 -450 -70 -14 -183 -18 -642
-22 l-558 -5 0 -669 0 -669 -255 0 -255 0 0 1835 0 1835 786 0 c661 0 803 -2
893 -16z"/>
<path d="M1980 3125 l0 -776 543 3 c531 4 543 4 602 26 120 44 213 140 260
265 44 119 58 231 58 457 0 283 -26 447 -92 579 -38 75 -132 162 -208 193
l-58 23 -552 3 -553 3 0 -776z"/>
</g>
</svg>
